<svg width="50" height="50" viewBox="0 0 50 50" fill="none" xmlns="http://www.w3.org/2000/svg">
<g clip-path="url(#clip0_284_62)">
<path d="M33.0682 33.3856C37.5785 33.3856 41.2348 29.7292 41.2348 25.2189C41.2348 20.7086 37.5785 17.0522 33.0682 17.0522C28.5578 17.0522 24.9015 20.7086 24.9015 25.2189C24.9015 29.7292 28.5578 33.3856 33.0682 33.3856Z" fill="#19BCFE"/>
<path fill-rule="evenodd" clip-rule="evenodd" d="M16.7348 49.7188C21.2451 49.7188 24.9014 46.0625 24.9014 41.5522C24.9014 40.3209 24.9014 37.5987 24.9014 33.3855C21.2327 33.3855 18.5104 33.3855 16.7348 33.3855C12.2245 33.3855 8.56812 37.0418 8.56812 41.5522C8.56812 46.0625 12.2245 49.7188 16.7348 49.7188Z" fill="#09CF83"/>
<path fill-rule="evenodd" clip-rule="evenodd" d="M16.7348 33.3856C18.2382 33.3856 20.9604 33.3856 24.9014 33.3856V17.0522C20.9604 17.0522 18.2382 17.0522 16.7348 17.0522C12.2245 17.0522 8.56812 20.7086 8.56812 25.2189C8.56812 29.7292 12.2245 33.3856 16.7348 33.3856Z" fill="#A259FF"/>
<path fill-rule="evenodd" clip-rule="evenodd" d="M16.7348 17.0522C18.2382 17.0522 20.9604 17.0522 24.9014 17.0522V0.718872C20.9604 0.718872 18.2382 0.718872 16.7348 0.718872C12.2245 0.718872 8.56812 4.37521 8.56812 8.88554C8.56812 13.3959 12.2245 17.0522 16.7348 17.0522Z" fill="#F24E1E"/>
<path fill-rule="evenodd" clip-rule="evenodd" d="M33.0682 17.0522H24.9015V0.718872H33.0682C37.5785 0.718872 41.2348 4.37521 41.2348 8.88554C41.2348 13.3959 37.5785 17.0522 33.0682 17.0522Z" fill="#FF7262"/>
</g>
<defs>
<clipPath id="clip0_284_62">
<rect width="49" height="49" fill="white" transform="translate(0.401489 0.718872)"/>
</clipPath>
</defs>
</svg>
