<svg width="55" height="56" viewBox="0 0 55 56" fill="none" xmlns="http://www.w3.org/2000/svg">
<path d="M4.88379 30.7871C3.56673 29.4456 3.56673 27.2707 4.88379 25.9292L25.1362 5.30174C26.4533 3.96029 28.5887 3.96029 29.9058 5.30174L50.1581 25.9292C51.4752 27.2707 51.4752 29.4456 50.1581 30.7871L29.9058 51.4145C28.5887 52.756 26.4533 52.756 25.1362 51.4145L4.88379 30.7871Z" fill="#EE513B"/>
<path d="M21.0223 9.55762L18.9714 11.6465L24.2683 17.0415C24.054 17.5097 23.9344 18.0319 23.9344 18.5826C23.9344 20.1459 24.8988 21.4799 26.2547 22.0008V35.1984C24.8988 35.7194 23.9344 37.0533 23.9344 38.6167C23.9344 40.6338 25.5399 42.269 27.5203 42.269C29.5008 42.269 31.1062 40.6338 31.1062 38.6167C31.1062 37.1994 30.3136 35.9705 29.1552 35.3651V22.0189L34.2185 27.176C34.0147 27.6347 33.9013 28.144 33.9013 28.6802C33.9013 30.6973 35.5067 32.3326 37.4872 32.3326C39.4676 32.3326 41.0731 30.6973 41.0731 28.6802C41.0731 26.6631 39.4676 25.0279 37.4872 25.0279C37.1023 25.0279 36.7317 25.0896 36.3841 25.2039L30.9461 19.6652C31.0502 19.3232 31.1062 18.9595 31.1062 18.5826C31.1062 16.5654 29.5008 14.9302 27.5203 14.9302C27.1502 14.9302 26.7933 14.9873 26.4574 15.0933L21.0223 9.55762Z" fill="white"/>
</svg>
