<svg width="90" height="88" viewBox="0 0 90 88" fill="none" xmlns="http://www.w3.org/2000/svg">
<path d="M45.4556 0.482056C20.8693 0.482056 0.955566 20.3958 0.955566 44.9821C0.955566 64.6733 13.6937 81.3052 31.3824 87.2014C33.6074 87.5908 34.4418 86.2558 34.4418 85.0877C34.4418 84.0308 34.3862 80.5264 34.3862 76.7996C23.2056 78.8577 20.3131 74.0739 19.4231 71.5708C18.9224 70.2914 16.7531 66.3421 14.8618 65.2852C13.3043 64.4508 11.0793 62.3927 14.8062 62.3371C18.3106 62.2814 20.8137 65.5633 21.6481 66.8983C25.6531 73.6289 32.0499 71.7377 34.6087 70.5696C34.9981 67.6771 36.1662 65.7302 37.4456 64.6177C27.5443 63.5052 17.1981 59.6671 17.1981 42.6458C17.1981 37.8064 18.9224 33.8014 21.7593 30.6864C21.3143 29.5739 19.7568 25.0127 22.2043 18.8939C22.2043 18.8939 25.9312 17.7258 34.4418 23.4552C38.0018 22.4539 41.7843 21.9533 45.5668 21.9533C49.3493 21.9533 53.1318 22.4539 56.6918 23.4552C65.2024 17.6702 68.9293 18.8939 68.9293 18.8939C71.3768 25.0127 69.8193 29.5739 69.3743 30.6864C72.2112 33.8014 73.9356 37.7508 73.9356 42.6458C73.9356 59.7227 63.5337 63.5052 53.6324 64.6177C55.2456 66.0083 56.6362 68.6783 56.6362 72.8502C56.6362 78.8021 56.5806 83.5858 56.5806 85.0877C56.5806 86.2558 57.4149 87.6464 59.6399 87.2014C68.4754 84.2213 76.1532 78.5443 81.5918 70.9702C87.0304 63.3961 89.9557 54.3065 89.9556 44.9821C89.9556 20.3958 70.0418 0.482056 45.4556 0.482056Z" fill="#D3D3D3"/>
</svg>
