<svg width="53" height="52" viewBox="0 0 53 52" fill="none" xmlns="http://www.w3.org/2000/svg">
<path fill-rule="evenodd" clip-rule="evenodd" d="M26.2236 0.263428C40.5096 0.263428 52.09 12.1359 52.09 26.7841C52.09 38.4989 44.687 48.4369 34.4155 51.947C33.104 52.2082 32.6384 51.38 32.6384 50.6738C32.6384 49.7996 32.6695 46.944 32.6695 43.3951C32.6695 40.9223 31.8418 39.3084 30.9132 38.4858C36.6736 37.8288 42.7263 35.586 42.7263 25.3998C42.7263 22.5028 41.7227 20.1387 40.0621 18.2815C40.3311 17.6116 41.2183 14.914 39.8086 11.2617C39.8086 11.2617 37.641 10.5511 32.7031 13.981C30.6364 13.3938 28.4222 13.0984 26.2236 13.088C24.0249 13.0984 21.8134 13.3938 19.7492 13.981C14.8061 10.5511 12.6334 11.2617 12.6334 11.2617C11.2288 14.914 12.116 17.6116 12.3825 18.2815C10.7296 20.1387 9.71823 22.5028 9.71823 25.3998C9.71823 35.5601 15.758 37.8374 21.503 38.5073C20.7632 39.1695 20.0932 40.3376 19.8604 42.0526C18.3861 42.7303 14.6406 43.9031 12.3333 39.8499C12.3333 39.8499 10.965 37.3017 8.368 37.1155C8.368 37.1155 5.84602 37.082 8.19211 38.7271C8.19211 38.7271 9.88636 39.5419 11.0633 42.607C11.0633 42.607 12.5816 47.3405 19.7777 45.7368C19.7906 47.9535 19.8139 50.0427 19.8139 50.6738C19.8139 51.3748 19.3379 52.1952 18.0472 51.9495C7.76789 48.4446 0.357178 38.5015 0.357178 26.7841C0.357178 12.1359 11.9401 0.263428 26.2236 0.263428Z" fill="#C766FF"/>
</svg>
