<svg width="49" height="49" viewBox="0 0 49 49" fill="none" xmlns="http://www.w3.org/2000/svg">
<path d="M45.4015 3.01709H3.40149V45.0171H45.4015V3.01709Z" fill="#FFCA28"/>
<path d="M28.9015 37.9489L31.9937 35.9026C32.2361 36.664 33.7708 38.4723 35.7092 38.4723C37.6477 38.4723 38.5477 37.4136 38.5477 36.7116C38.5477 34.7988 36.5683 34.1244 35.6176 33.8005C35.4625 33.7477 35.335 33.7042 35.2477 33.6663C35.2028 33.6468 35.1352 33.6208 35.0483 33.5877C33.991 33.1837 30.0899 31.6933 30.0899 27.373C30.0899 22.6146 34.6822 22.0674 35.7208 22.0674C36.4001 22.0674 39.6668 22.1506 41.2937 25.2079L38.2937 27.3018C37.6361 25.9693 36.5434 25.5292 35.8708 25.5292C34.2092 25.5292 33.863 26.7472 33.863 27.3018C33.863 28.8576 35.6683 29.5549 37.1924 30.1437C37.5913 30.2977 37.9708 30.4443 38.2937 30.597C39.9553 31.3821 42.4015 32.667 42.4015 36.7116C42.4015 38.7375 40.7023 42.0174 36.4246 42.0174C30.6784 42.0174 29.1553 38.5675 28.9015 37.9489Z" fill="#3E3E3E"/>
<path d="M13.9015 38.3551L17.1245 36.31C17.377 37.0709 18.3584 38.474 19.7822 38.474C21.2062 38.474 21.935 37.0115 21.935 36.31V22.5173H25.8988V36.31C25.963 38.2124 24.9079 42.0173 20.2513 42.0173C15.97 42.0173 14.1901 39.4729 13.9015 38.3551Z" fill="#3E3E3E"/>
</svg>
