<svg width="90" height="90" viewBox="0 0 90 90" fill="none" xmlns="http://www.w3.org/2000/svg">
<path d="M0.213135 6.85668C0.213135 3.33562 3.13901 0.482056 6.74907 0.482056H82.6772C86.2873 0.482056 89.2131 3.33562 89.2131 6.85668V83.1074C89.2131 86.6285 86.2873 89.4821 82.6772 89.4821H6.74907C3.13901 89.4821 0.213135 86.6285 0.213135 83.1074V6.85668ZM27.7086 74.9862V34.7971H14.353V74.9862H27.7086ZM21.0336 29.3069C25.6894 29.3069 28.5874 26.2253 28.5874 22.3649C28.504 18.4211 25.6949 15.4229 21.1226 15.4229C16.5502 15.4229 13.5631 18.4267 13.5631 22.3649C13.5631 26.2253 16.4612 29.3069 20.9446 29.3069H21.0336ZM48.3343 74.9862V52.5415C48.3343 51.34 48.4233 50.1385 48.7793 49.2819C49.7416 46.8844 51.9388 44.398 55.6323 44.398C60.4661 44.398 62.3963 48.0804 62.3963 53.4871V74.9862H75.7519V51.9352C75.7519 39.5864 69.1659 33.8459 60.3771 33.8459C53.2905 33.8459 50.1143 37.7397 48.3343 40.482V40.6211H48.2453L48.3343 40.482V34.7971H34.9843C35.1512 38.5685 34.9843 74.9862 34.9843 74.9862H48.3343Z" fill="#D3D3D3"/>
</svg>
