<svg width="46" height="46" viewBox="0 0 46 46" fill="none" xmlns="http://www.w3.org/2000/svg">
<path d="M11.7009 14.9091C13.4142 14.9091 14.8032 13.5202 14.8032 11.8069C14.8032 10.0935 13.4142 8.70459 11.7009 8.70459C9.98756 8.70459 8.59863 10.0935 8.59863 11.8069C8.59863 13.5202 9.98756 14.9091 11.7009 14.9091Z" fill="#5CA3FF"/>
<path d="M8.59863 19.0455C8.59863 17.9033 9.5246 16.9773 10.6668 16.9773H12.735C13.8772 16.9773 14.8032 17.9032 14.8032 19.0455V35.5909C14.8032 36.7332 13.8772 37.6591 12.735 37.6591H10.6668C9.5246 37.6591 8.59863 36.7332 8.59863 35.5909V19.0455Z" fill="#5CA3FF"/>
<path d="M21.0076 37.6591H23.0758C24.2181 37.6591 25.144 36.7332 25.144 35.5909V26.2841C25.144 23.1818 31.3485 21.1137 31.3485 25.25V35.5918C31.3485 36.734 32.2745 37.6591 33.4167 37.6591H35.4849C36.6272 37.6591 37.5531 36.7332 37.5531 35.5909V23.1818C37.5531 19.0455 34.4508 16.9773 30.3145 16.9773C26.1781 16.9773 25.144 20.0796 25.144 20.0796V19.0455C25.144 17.9032 24.2181 16.9773 23.0758 16.9773H21.0076C19.8654 16.9773 18.9395 17.9033 18.9395 19.0455V35.5909C18.9395 36.7332 19.8654 37.6591 21.0076 37.6591Z" fill="#5CA3FF"/>
<path fill-rule="evenodd" clip-rule="evenodd" d="M39.6214 0.431885C43.0482 0.431885 45.8259 3.20976 45.8259 6.63643V39.7273C45.8259 43.1541 43.0482 45.9319 39.6214 45.9319H6.53047C3.10381 45.9319 0.325928 43.1541 0.325928 39.7273V6.63643C0.325928 3.20976 3.10381 0.431885 6.53047 0.431885H39.6214ZM39.6214 4.56825C40.7636 4.56825 41.6896 5.49421 41.6896 6.63643V39.7273C41.6896 40.8696 40.7636 41.7955 39.6214 41.7955H6.53047C5.38826 41.7955 4.46229 40.8696 4.46229 39.7273V6.63643C4.46229 5.49421 5.38826 4.56825 6.53047 4.56825H39.6214Z" fill="#5CA3FF"/>
</svg>
