<svg width="48" height="49" viewBox="0 0 48 49" fill="none" xmlns="http://www.w3.org/2000/svg">
<g clip-path="url(#clip0_284_111)">
<path d="M2.4469 3.08081H45.5304V45.8809H2.4469V3.08081Z" fill="url(#paint0_radial_284_111)"/>
<path d="M2.44696 3.08091H45.5304V45.881H2.44696V3.08091ZM0.488647 47.8811H47.4887V1.08093H0.488647V47.8811ZM32.1745 20.281C30.6274 20.281 30.0987 21.0809 30.0987 21.7409C30.0987 22.4609 30.4512 22.9609 32.5271 24.0609C35.6016 25.581 36.5612 27.041 36.5612 29.181C36.5612 32.381 34.1721 34.101 30.9408 34.101C29.237 34.101 27.7682 33.7409 26.9262 33.241C26.7891 33.181 26.7695 33.081 26.7695 32.921V29.981C26.7695 29.781 26.8674 29.7209 27.0046 29.821C28.2383 30.641 29.6483 31.001 30.9408 31.001C32.4879 31.001 33.1341 30.341 33.1341 29.441C33.1341 28.721 32.6837 28.081 30.7057 27.041C27.9249 25.681 26.7695 24.301 26.7695 22.001C26.7695 19.4209 28.7475 17.281 32.1745 17.281C33.8587 17.281 35.0337 17.541 35.68 17.841C35.8366 17.941 35.8758 18.1009 35.8758 18.2409V20.9809C35.8758 21.1408 35.7779 21.2409 35.582 21.1808C34.7203 20.621 33.4474 20.281 32.1745 20.281ZM15.3328 22.661C15.7833 22.701 16.1358 22.701 16.9191 22.701C19.2104 22.701 21.3645 21.881 21.3645 18.701C21.3645 16.161 19.8174 14.881 17.2129 14.881C16.4296 14.881 15.6853 14.9209 15.3328 14.9409V22.661ZM11.8471 12.0409C11.8471 11.9009 12.1213 11.8009 12.2778 11.8009C13.5312 11.7409 15.3916 11.7009 17.3304 11.7009C22.7549 11.7009 24.8699 14.7409 24.8699 18.6209C24.8699 23.7009 21.2666 25.8809 16.8408 25.8809C16.0966 25.8809 15.8421 25.841 15.3132 25.841V33.521C15.3132 33.681 15.2545 33.7609 15.0783 33.7609H12.082C11.9254 33.7609 11.847 33.701 11.847 33.521V12.0409H11.8471Z" fill="#31C5F0"/>
</g>
<defs>
<radialGradient id="paint0_radial_284_111" cx="0" cy="0" r="1" gradientUnits="userSpaceOnUse" gradientTransform="translate(16.6365 12.6724) scale(32.7434 32.3761)">
<stop stop-color="#34364E" stop-opacity="0.98"/>
<stop offset="1" stop-color="#0C0824"/>
</radialGradient>
<clipPath id="clip0_284_111">
<rect width="47" height="48" fill="white" transform="translate(0.488647 0.480957)"/>
</clipPath>
</defs>
</svg>
