<svg width="35" height="51" viewBox="0 0 35 51" fill="none" xmlns="http://www.w3.org/2000/svg">
<path d="M16.9335 50.8675C12.6922 50.8675 8.62461 49.1826 5.62555 46.1836C2.6265 43.1845 0.94165 39.1169 0.94165 34.8756C0.94165 30.6343 2.6265 26.5667 5.62555 23.5677C8.62461 20.5686 12.6922 18.8838 16.9335 18.8838V50.8675ZM16.9335 0.892944H0.94165V16.8848H16.9335V0.892944ZM26.9284 16.8848C29.049 16.8848 31.0828 16.0424 32.5824 14.5428C34.0819 13.0433 34.9243 11.0095 34.9243 8.88887C34.9243 6.76822 34.0819 4.73442 32.5824 3.2349C31.0828 1.73537 29.049 0.892944 26.9284 0.892944C24.8077 0.892944 22.774 1.73537 21.2744 3.2349C19.7749 4.73442 18.9325 6.76822 18.9325 8.88887C18.9325 11.0095 19.7749 13.0433 21.2744 14.5428C22.774 16.0424 24.8077 16.8848 26.9284 16.8848Z" fill="white"/>
</svg>
