<svg width="52" height="53" viewBox="0 0 52 53" fill="none" xmlns="http://www.w3.org/2000/svg">
<path d="M30.7111 26.3886C30.7111 24.0577 28.7997 22.1678 26.4416 22.1678C24.0838 22.1678 22.1721 24.0577 22.1721 26.3886C22.1721 28.7198 24.0838 30.6096 26.4416 30.6096C28.7997 30.6096 30.7111 28.7198 30.7111 26.3886Z" fill="#53C1DE"/>
<path fill-rule="evenodd" clip-rule="evenodd" d="M40.3079 18.5525C41.2095 14.9305 42.3428 8.21389 38.3476 5.93674C34.371 3.66953 29.1963 8.01393 26.4638 10.6216C23.7393 8.03991 18.4192 3.71408 14.4274 5.99846C10.4524 8.27328 11.6782 14.8785 12.5998 18.5232C8.89177 19.5644 2.5354 21.8069 2.5354 26.3886C2.5354 30.9573 8.88516 33.397 12.5712 34.4372C11.6462 38.1021 10.4818 44.6129 14.4619 46.8827C18.4686 49.1667 23.7721 44.9438 26.5299 42.3076C29.28 44.9306 34.405 49.1811 38.3823 46.905C42.3721 44.6217 41.333 37.9951 40.4114 34.3293C43.9845 33.2869 50.3479 30.9002 50.3479 26.3886C50.3479 21.8509 43.9574 19.5902 40.3079 18.5525ZM39.855 32.3866C39.2498 30.4928 38.433 28.479 37.4339 26.3986C38.3876 24.3674 39.1727 22.3795 39.7609 20.4979C42.4364 21.2648 48.3055 23.0173 48.3055 26.3886C48.3055 29.7915 42.6734 31.5606 39.855 32.3866ZM37.3588 45.1575C34.3913 46.8556 29.9831 42.7908 27.9522 40.8592C29.2996 39.4024 30.646 37.7088 31.96 35.8282C34.2716 35.6256 36.4552 35.2941 38.4356 34.8415C39.0842 37.4345 40.3395 43.4517 37.3588 45.1575ZM15.4824 45.1333C12.5146 43.4415 13.8711 37.6315 14.5516 34.9318C16.5099 35.3602 18.6779 35.6683 20.9949 35.854C22.3175 37.6942 23.703 39.3856 25.0991 40.867C23.3742 42.5165 18.4641 46.8329 15.4824 45.1333ZM4.57778 26.3886C4.57778 22.973 10.4118 21.2331 13.1482 20.4682C13.7467 22.392 14.5315 24.4036 15.4786 26.4378C14.5192 28.5022 13.7232 30.5456 13.1193 32.4922C10.51 31.7538 4.57778 29.8063 4.57778 26.3886ZM15.4507 7.74599C18.4307 6.04074 23.0545 10.1937 25.0326 12.0629C23.6437 13.5375 22.271 15.2162 20.9596 17.0458C18.711 17.2518 16.5584 17.5827 14.5795 18.026C13.8371 15.0864 12.4739 9.44939 15.4507 7.74599ZM33.4212 19.2405C34.9467 19.4308 36.4083 19.684 37.7807 19.9937C37.3687 21.2992 36.8552 22.6644 36.2504 24.0638C35.3737 22.4193 34.4326 20.8078 33.4212 19.2405ZM26.4644 13.5059C27.4065 14.5148 28.35 15.6415 29.2782 16.8638C27.3955 16.7757 25.5098 16.7754 23.6271 16.8625C24.5561 15.6515 25.5077 14.5265 26.4644 13.5059ZM16.6504 24.0624C16.0556 22.6678 15.5467 21.2966 15.1312 19.9724C16.4953 19.6707 17.9502 19.424 19.4658 19.2368C18.4515 20.8007 17.512 22.4115 16.6504 24.0624ZM19.5093 33.6845C17.9436 33.5118 16.4668 33.2776 15.103 32.9841C15.5252 31.6367 16.0453 30.2359 16.6528 28.8113C17.5262 30.4793 18.4801 32.1058 19.5093 33.6845ZM26.521 39.4139C25.553 38.3812 24.5873 37.239 23.6443 36.0105C25.5377 36.084 27.4347 36.0841 29.3279 36.0006C28.3969 37.2515 27.4567 38.3954 26.521 39.4139ZM36.2698 28.7388C36.9089 30.1789 37.4476 31.572 37.8755 32.8967C36.4891 33.2095 34.9924 33.4614 33.4154 33.6484C34.4343 32.0514 35.3904 30.4148 36.2698 28.7388ZM30.8202 33.8931C27.924 34.0977 25.0098 34.0955 22.1127 33.9099C20.4665 31.5327 19.0011 29.0326 17.7361 26.4372C18.995 23.8471 20.4498 21.3519 22.0882 18.9784C24.9874 18.7618 27.9044 18.7611 30.8036 18.9797C32.4279 21.353 33.8805 23.8417 35.1685 26.4084C33.8958 28.9972 32.4334 31.4974 30.8202 33.8931ZM37.3274 7.68596C40.3082 9.38561 38.9814 15.422 38.3302 18.047C36.3466 17.5944 34.1925 17.2577 31.9374 17.0484C30.6235 15.199 29.2623 13.5174 27.8958 12.0619C29.8993 10.1524 34.3755 6.00293 37.3274 7.68596Z" fill="#53C1DE"/>
</svg>
