<svg width="46" height="46" viewBox="0 0 46 46" fill="none" xmlns="http://www.w3.org/2000/svg">
<g clip-path="url(#clip0_284_56)">
<path d="M0.94165 23.34V45.84H23.4417H45.9417V23.34V0.839966H23.4417H0.94165V23.34Z" fill="#007ACC"/>
<path d="M10.8927 23.4893L10.8785 25.3321L13.807 25.3321H16.7356V33.6535V41.975H18.807H20.8785V33.6535V25.3321H23.807H26.7356V23.525C26.7356 22.525 26.7142 21.6893 26.6856 21.6678C26.6642 21.6393 23.0999 21.625 18.7785 21.6321L10.9142 21.6535L10.8927 23.4893Z" fill="white"/>
<path d="M37.2523 21.6012C38.3952 21.8869 39.2666 22.394 40.0666 23.2226C40.4809 23.6655 41.0952 24.4726 41.1452 24.6655C41.1595 24.7226 39.2023 26.0369 38.0166 26.7726C37.9737 26.8012 37.8023 26.6155 37.6095 26.3297C37.0309 25.4869 36.4237 25.1226 35.4952 25.0583C34.1309 24.9655 33.2523 25.6797 33.2595 26.8726C33.2595 27.2226 33.3095 27.4297 33.4523 27.7155C33.7523 28.3369 34.3095 28.7083 36.0595 29.4655C39.2809 30.8512 40.6595 31.7655 41.5166 33.0655C42.4737 34.5155 42.688 36.8297 42.038 38.5512C41.3237 40.4226 39.5523 41.694 37.0595 42.1155C36.288 42.2512 34.4595 42.2297 33.6309 42.0797C31.8237 41.7583 30.1095 40.8655 29.0523 39.694C28.638 39.2369 27.8309 38.044 27.8809 37.9583C27.9023 37.9297 28.088 37.8155 28.2952 37.694C28.4952 37.5797 29.2523 37.144 29.9666 36.7297L31.2595 35.9797L31.5309 36.3797C31.9095 36.9583 32.738 37.7512 33.238 38.0155C34.6737 38.7726 36.6452 38.6655 37.6166 37.794C38.0309 37.4155 38.2023 37.0226 38.2023 36.444C38.2023 35.9226 38.138 35.694 37.8666 35.3012C37.5166 34.8012 36.8023 34.3797 34.7737 33.5012C32.4523 32.5012 31.4523 31.8797 30.538 30.894C30.0095 30.3226 29.5095 29.4083 29.3023 28.644C29.1309 28.0083 29.088 26.4155 29.2237 25.7726C29.7023 23.5297 31.3952 21.9655 33.838 21.5012C34.6309 21.3512 36.4737 21.4083 37.2523 21.6012Z" fill="white"/>
</g>
<defs>
<clipPath id="clip0_284_56">
<rect width="45" height="45" fill="white" transform="translate(0.94165 0.839966)"/>
</clipPath>
</defs>
</svg>
