<svg width="146" height="141" viewBox="0 0 146 141" fill="none" xmlns="http://www.w3.org/2000/svg">
<g clip-path="url(#clip0_142_146)">
<path fill-rule="evenodd" clip-rule="evenodd" d="M54.6631 6.3479C45.2691 6.3479 37.6732 9.38656 32.4081 14.4348C27.1986 19.4289 24.6307 26.0592 24.6307 32.6183C24.6307 39.1773 27.1986 45.8076 32.4081 50.8017C32.7685 51.1466 33.1396 51.483 33.5214 51.8108C34.026 52.2412 34.5494 52.6546 35.091 53.0508C34.6067 53.4042 34.1373 53.772 33.6826 54.1539C33.2439 54.5245 32.8188 54.9064 32.4081 55.2998C27.1986 60.2939 24.6307 66.9244 24.6307 73.4833C24.6307 80.0421 27.1986 86.6727 32.4081 91.6665C33.195 92.4219 34.0337 93.1288 34.9227 93.7903C31.3135 96.558 28.4815 100.167 26.7069 104.294C24.6426 109.095 24.1024 114.377 25.155 119.473C26.2074 124.57 28.8049 129.251 32.6194 132.925C36.4343 136.599 41.2943 139.099 46.5849 140.114C51.876 141.129 57.3601 140.607 62.3443 138.617C67.3285 136.631 71.5877 133.264 74.585 128.943C77.5823 124.625 79.1818 119.545 79.1818 114.348V95.3297C83.5156 98.1231 88.7283 99.7536 94.3349 99.7536C109.399 99.7536 121.61 87.9927 121.61 73.4833C121.61 65.1597 117.591 57.7399 111.319 52.9254C112.208 52.264 113.047 51.5571 113.833 50.8017C119.043 45.8076 121.61 39.1773 121.61 32.6183C121.61 26.0592 119.043 19.4289 113.833 14.4348C108.568 9.38656 100.972 6.3479 91.5783 6.3479H54.6631ZM67.0594 58.8886H54.6631C48.0762 58.8886 43.6868 60.9581 40.9613 63.5718C38.1804 66.2402 36.7532 69.8259 36.7532 73.4833C36.7532 77.1407 38.1804 80.7263 40.9613 83.3948C43.6868 86.0084 48.0766 88.0779 54.6631 88.0779H67.0594V58.8886ZM43.5392 102.288C46.0156 100.694 48.9274 99.7536 51.9063 99.7536C51.9063 99.7536 54.2197 99.7536 54.6631 99.7536H67.0594V114.348C67.0594 117.216 66.0841 120.021 64.4288 122.407C62.7741 124.793 60.4218 126.651 57.6697 127.748C54.9177 128.849 51.8896 129.134 48.9682 128.575C46.0466 128.016 43.3631 126.634 41.2566 124.604C39.1505 122.578 37.7162 119.992 37.135 117.179C36.5538 114.365 36.852 111.446 37.9922 108.798C39.132 106.147 41.0624 103.881 43.5392 102.288ZM79.1818 47.2129H91.5783C98.1644 47.2129 102.555 45.1434 105.28 42.5295C108.061 39.8614 109.488 36.2754 109.488 32.6183C109.488 28.9611 108.061 25.3751 105.28 22.707C102.555 20.0931 98.165 18.0236 91.5783 18.0236H79.1818V47.2129ZM67.0594 47.2129H54.6631C48.0766 47.2129 43.6868 45.1434 40.9613 42.5295C38.1804 39.8614 36.7532 36.2754 36.7532 32.6183C36.7532 28.9611 38.1804 25.3751 40.9613 22.707C43.6868 20.0931 48.0762 18.0236 54.6631 18.0236H67.0594V47.2129ZM94.3349 87.9898C86.0171 87.9898 79.2746 81.4934 79.2746 73.4833C79.2746 65.4731 86.0171 58.977 94.3349 58.977C102.653 58.977 109.395 65.4731 109.395 73.4833C109.395 81.4934 102.653 87.9898 94.3349 87.9898Z" fill="#3496FF"/>
</g>
<defs>
<clipPath id="clip0_142_146">
<path d="M0.385742 5.22022C0.385742 2.4588 2.62432 0.220215 5.38574 0.220215H140.855C143.617 0.220215 145.855 2.45879 145.855 5.22021V135.329C145.855 138.09 143.617 140.329 140.855 140.329H5.38574C2.62432 140.329 0.385742 138.09 0.385742 135.329V5.22022Z" fill="white"/>
</clipPath>
</defs>
</svg>
