<svg width="146" height="141" viewBox="0 0 146 141" fill="none" xmlns="http://www.w3.org/2000/svg">
<path d="M142.494 64.3795L79.3294 3.54772C77.6412 1.92634 75.3114 0.922852 72.7356 0.922852C70.1599 0.922852 67.8301 1.92634 66.1419 3.54772L53.0556 16.1749L69.692 32.1982C70.7532 31.8405 71.9735 31.6361 73.2469 31.6361C79.368 31.6361 84.3266 36.4119 84.3266 42.3074C84.3266 43.5571 84.1047 44.7511 83.6947 45.8661L83.7188 45.7918L99.7426 61.2343C100.813 60.8673 102.053 60.6536 103.341 60.6536C109.457 60.6536 114.416 65.4295 114.416 71.3203C114.416 77.2111 109.457 81.987 103.341 81.987C97.2247 81.987 92.2661 77.2111 92.2661 71.3203C92.2661 69.8662 92.57 68.4817 93.1151 67.2181L93.0861 67.2878L78.0849 52.9137V90.7954C81.7701 92.584 84.2542 96.1984 84.2542 100.37C84.2542 106.27 79.286 111.056 73.1601 111.056C67.0342 111.056 62.066 106.27 62.066 100.37C62.066 97.4249 63.3008 94.7629 65.3026 92.8302C66.3203 91.85 67.531 91.0555 68.8768 90.4981L68.9492 90.4702V52.2169C64.8877 50.5723 62.0901 46.7674 62.0901 42.3399C62.0901 40.8533 62.4036 39.441 62.9728 38.1541L62.9439 38.2238L46.5969 22.4049L3.28151 64.0961C1.60292 65.7268 0.570679 67.9707 0.570679 70.4515C0.570679 72.9324 1.60774 75.1763 3.28633 76.807L66.4554 137.629C68.1388 139.255 70.4686 140.259 73.0443 140.259C75.6201 140.259 77.9451 139.255 79.6333 137.629L142.503 77.0764C144.192 75.455 145.238 73.2065 145.238 70.7303C145.238 68.2541 144.192 66.0055 142.503 64.3841L142.494 64.3795Z" fill="#3496FF"/>
</svg>
