<svg width="136" height="152" viewBox="0 0 136 152" fill="none" xmlns="http://www.w3.org/2000/svg">
<path d="M17.6123 14.4576C17.9997 7.41864 19.637 4.35772 24.3321 1.8997C29.384 -0.7459 37.3518 0.485282 46.7275 5.36112C50.7658 7.46224 51.177 7.50501 58.2542 6.57315C67.6613 5.33406 79.7719 5.33844 88.4544 6.5845C95.0203 7.52681 95.4515 7.47973 99.4996 5.37424C112.808 -1.5469 123.315 -1.09405 127.119 6.56441C129.018 10.3871 129.371 20.3063 127.899 28.4874C127.082 33.023 127.169 33.5893 129.136 36.5656C142.973 57.5079 133.003 91.4542 109.291 104.123C107.476 105.092 105.947 105.692 104.701 106.181C100.874 107.681 99.7125 108.137 101.119 115.044C101.797 118.367 102.612 126.627 102.933 133.401C103.513 145.647 103.504 145.732 101.413 148.23C98.5661 151.629 94.4634 151.686 91.6834 148.366C89.8703 146.202 89.6933 145.179 89.6933 136.827C89.6933 124.484 88.3758 116.28 85.2632 109.25C81.5617 100.884 84.3057 97.7641 92.7707 95.8945C104.537 93.2951 113.726 85.8379 118.848 74.7331C123.718 64.1769 124.452 49.5892 115.648 40.7173C113.144 37.6615 112.97 34.8938 114.757 26.5477C115.425 23.4284 115.986 19.4041 116.002 17.604C116.028 14.7612 115.775 14.3319 114.075 14.3319C112.999 14.3319 108.889 15.9392 104.942 17.9033L98.6419 21.0391C98.0691 21.3241 97.4283 21.4337 96.7962 21.3593C80.7772 19.4709 65.5561 19.4418 49.4587 21.3666C48.8242 21.4425 48.1806 21.3329 47.6058 21.0464L41.3094 17.9086C37.362 15.9409 33.2515 14.3319 32.1759 14.3319C29.689 14.3319 29.6516 16.2175 31.9184 27.4203C33.3031 34.2622 34.2349 35.7867 30.2319 41.2574C24.2318 49.4576 22.733 59.6404 25.9506 70.3392C30.0059 83.8214 39.9364 92.9295 53.8975 95.9683C62.3137 97.8003 64.5134 100.191 61.2996 110.102C58.7699 117.901 57.1703 119.912 53.4939 119.912C48.5474 119.912 45.4488 115.511 47.154 110.906C47.9051 108.876 47.6816 108.66 43.0477 106.924C28.9022 101.628 18.083 89.7561 13.1364 74.1023C9.31312 62.0042 10.9954 46.2571 17.1289 36.7392C19.2173 33.4985 19.2496 33.2237 18.275 27.0198C17.7236 23.5078 17.4254 17.8553 17.6123 14.4576Z" fill="#2D5EFF"/>
<path d="M12.6727 102.96C10.6343 99.8203 6.50315 98.9716 3.44554 101.065C0.388 103.158 -0.438265 107.401 1.60012 110.541C3.105 112.86 4.90531 114.764 6.43415 116.334C6.716 116.623 6.98987 116.903 7.25729 117.176C8.53794 118.482 9.66868 119.636 10.8043 121.005C13.3162 124.033 15.8221 128.111 17.2463 135.424C17.8806 138.681 20.1606 140.436 21.4238 141.203C22.7938 142.034 24.2907 142.524 25.5226 142.843C28.0424 143.496 31.1013 143.834 34.0044 144.032C37.1913 144.249 40.6444 144.32 43.7322 144.339C43.7345 148.11 46.7126 151.167 50.3859 151.167C54.0607 151.167 57.0397 148.108 57.0397 144.334V137.501C57.0397 133.727 54.0607 130.667 50.3859 130.667C49.7587 130.667 49.08 130.669 48.3612 130.672C44.4564 130.684 39.3666 130.7 34.8839 130.395C32.7223 130.248 30.9454 130.04 29.6423 129.785C27.6357 121.695 24.3939 116.313 20.9347 112.142C19.4055 110.299 17.822 108.687 16.534 107.375C16.2929 107.129 16.0622 106.894 15.844 106.67C14.3579 105.144 13.3857 104.059 12.6727 102.96Z" fill="#2D5EFF"/>
</svg>
