<svg width="156" height="113" viewBox="0 0 156 113" fill="none" xmlns="http://www.w3.org/2000/svg">
<path d="M34.3349 1.89667H60.0023V70.6397C60.0023 101.618 44.4623 112.432 19.6365 112.432C13.5601 112.432 5.7867 111.464 0.723022 109.85L3.597 89.9994C7.14157 91.1306 11.7057 91.9348 16.7694 91.9348C27.581 91.9348 34.3349 87.2534 34.3349 70.4763V1.89667ZM82.2893 85.488C89.0432 88.8749 99.8548 92.2682 110.831 92.2682C122.655 92.2682 128.903 87.5868 128.903 80.3294C128.903 73.7127 123.497 69.6786 109.818 65.1607C90.9044 58.7074 78.4094 48.7039 78.4094 32.7245C78.4094 14.1689 94.7911 0.131348 121.471 0.131348C134.473 0.131348 143.765 2.55049 150.519 5.61693L144.778 25.3036C140.385 23.2048 132.112 20.1384 121.136 20.1384C109.989 20.1384 104.583 25.1401 104.583 30.6257C104.583 37.5628 110.831 40.6292 125.693 46.1148C145.791 53.2153 155.076 63.2188 155.076 78.7079C155.076 96.943 140.556 112.432 109.312 112.432C96.3102 112.432 83.4731 109.045 77.0546 105.652L82.2893 85.488Z" fill="#3496FF"/>
</svg>
