<svg width="129" height="132" viewBox="0 0 129 132" fill="none" xmlns="http://www.w3.org/2000/svg">
<path fill-rule="evenodd" clip-rule="evenodd" d="M129.007 132H103.301V85.8064C103.301 73.1344 97.8574 66.0645 88.0955 66.0645C77.4724 66.0645 71.1679 73.4314 71.1679 85.8064V132H45.4616V46.2H71.1679V55.8486C71.1679 55.8486 79.2332 41.3145 97.4075 41.3145C115.588 41.3145 129.007 52.7083 129.007 76.2835V132ZM16.1693 32.4779C7.49984 32.4779 0.475586 25.2051 0.475586 16.2357C0.475586 7.27294 7.49984 0 16.1693 0C24.8323 0 31.8565 7.27294 31.8565 16.2357C31.8629 25.2051 24.8323 32.4779 16.1693 32.4779ZM0.475586 132H32.6084V46.2H0.475586V132Z" fill="#2D5EFF"/>
</svg>
