<svg width="168" height="162" viewBox="0 0 168 162" fill="none" xmlns="http://www.w3.org/2000/svg">
<mask id="mask0_142_205" style="mask-type:luminance" maskUnits="userSpaceOnUse" x="0" y="0" width="168" height="162">
<path d="M0.772949 161.428V0.928955H167.452V161.428H0.772949Z" fill="white" stroke="url(#paint0_linear_142_205)"/>
</mask>
<g mask="url(#mask0_142_205)">
<path d="M132.919 8.35738L133.266 7.99725L132.919 8.35739C137.855 13.1111 140.623 19.5544 140.623 26.2688C140.623 32.9832 137.855 39.4265 132.919 44.1803C127.983 48.9345 121.284 51.6087 114.295 51.6087C107.306 51.6087 100.607 48.9345 95.6709 44.1803C90.7354 39.4265 87.9662 32.9832 87.9662 26.2688C87.9662 19.5545 90.7354 13.1111 95.6709 8.35739C100.607 3.60307 107.306 0.928955 114.295 0.928955C121.284 0.928955 127.983 3.60308 132.919 8.35738ZM80.259 161.426C66.336 161.3 53.0143 155.918 43.1648 146.432C33.1978 136.832 27.6021 123.816 27.6021 110.248C27.6021 96.6812 33.1978 83.6651 43.1648 74.0653C53.0143 64.5788 66.336 59.1969 80.259 59.0709V161.426ZM80.259 0.928955V51.6087H27.6021V0.928955H80.259Z" fill="#3496FF" stroke="url(#paint1_linear_142_205)"/>
</g>
<defs>
<linearGradient id="paint0_linear_142_205" x1="84.1123" y1="0.428955" x2="84.1123" y2="161.928" gradientUnits="userSpaceOnUse">
<stop stop-color="#2D5EFF"/>
<stop offset="1" stop-color="#243F99"/>
</linearGradient>
<linearGradient id="paint1_linear_142_205" x1="84.1127" y1="0.428955" x2="84.1127" y2="161.928" gradientUnits="userSpaceOnUse">
<stop stop-color="#2D5EFF"/>
<stop offset="1" stop-color="#243F99"/>
</linearGradient>
</defs>
</svg>
