<svg width="162" height="140" viewBox="0 0 162 140" fill="none" xmlns="http://www.w3.org/2000/svg">
<path d="M71.6271 102.138C74.5799 102.268 77.5972 102.362 80.652 102.362C83.7391 102.362 86.7886 102.299 89.779 102.138C86.7886 105.885 83.8357 109.201 80.7111 112.36L80.754 112.318C77.6455 109.195 74.6604 105.875 71.8472 102.419L71.6271 102.138ZM41.0356 97.974C46.85 99.4053 53.9422 100.623 61.1794 101.373L61.8827 101.43C66.3119 107.327 70.7895 112.516 75.5946 117.398L75.5356 117.336C68.497 124.95 58.9996 130.301 48.2566 132.221L47.9613 132.263C47.9399 132.263 47.9184 132.263 47.8969 132.263C46.5655 132.263 45.3092 131.945 44.2086 131.383L44.2515 131.404C39.7847 128.932 37.8465 119.475 39.3552 107.322C39.7149 104.329 40.3054 101.18 41.0302 97.9688L41.0356 97.974ZM120.403 97.9063C121.036 100.373 121.632 103.517 122.056 106.713L122.105 107.16C123.645 119.308 121.745 128.755 117.316 131.279C116.328 131.81 115.147 132.122 113.89 132.122C113.767 132.122 113.643 132.117 113.52 132.112H113.536C102.514 130.16 93.0218 124.846 85.9994 117.325L85.9618 117.284C90.681 112.48 95.1263 107.301 99.2013 101.852L99.5127 101.414C107.437 100.613 114.54 99.374 121.46 97.6825L120.403 97.9011V97.9063ZM47.3117 78.4823C48.6539 81.0326 50.0606 83.5725 51.6068 86.1228C53.1494 88.6593 54.7261 91.1367 56.3367 93.5552C51.6766 92.8942 47.1775 92.0614 42.8771 91.0465C44.0851 86.9504 45.5991 82.7085 47.3064 78.4719L47.3117 78.4823ZM114.035 78.3522C115.812 82.6252 117.321 86.8879 118.572 91.0205C114.277 92.0406 109.74 92.9046 105.048 93.5552C106.659 91.1141 108.269 88.6003 109.778 86.0239C111.286 83.4892 112.698 80.8973 114.046 78.3469L114.035 78.3522ZM35.6883 50.5121C38.0291 58.2047 40.5417 64.6377 43.4677 70.8417L43.065 69.8945C40.5631 75.1252 38.0881 81.5218 36.0587 88.1058L35.7795 89.1728C31.9891 88.0434 28.9397 86.9348 25.9707 85.6908L26.5881 85.9198C14.97 81.1263 7.45369 74.8233 7.45369 69.8268C7.45369 64.8303 14.97 58.4961 26.5881 53.7234C29.4067 52.5523 32.4992 51.4958 35.6883 50.5121ZM125.557 50.486C128.805 51.4593 131.892 52.5471 134.78 53.7234C146.398 58.5378 153.915 64.8303 153.915 69.8268C153.883 74.8233 146.366 81.1419 134.748 85.925C131.93 87.0961 128.842 88.1475 125.659 89.1311C123.296 81.4125 120.784 74.9847 117.869 68.7703L118.277 69.7487C120.768 64.5232 123.248 58.1266 125.272 51.5426L125.557 50.4704V50.486ZM105.005 46.0985C109.67 46.7699 114.164 47.5922 118.465 48.6176C117.257 52.7293 115.748 56.9555 114.035 61.1922C112.693 58.6575 111.286 56.1019 109.74 53.5568C108.232 51.0065 106.621 48.5239 105.01 46.1037L105.005 46.0985ZM56.2991 46.0985C54.6885 48.5499 53.0778 51.0586 51.5746 53.6453C50.0659 56.18 48.6539 58.7303 47.3117 61.2807C45.5347 57.0128 44.026 52.7605 42.7751 48.6176C47.0701 47.6443 51.596 46.7751 56.2937 46.1089L56.2991 46.0985ZM80.6842 44.4434C85.6504 44.4434 90.5951 44.662 95.4592 45.0471C98.183 48.8327 100.828 52.8646 103.394 57.1429C105.889 61.3067 108.165 65.526 110.223 69.8008C108.156 74.0635 105.891 78.3209 103.427 82.4847C100.876 86.7786 98.2402 90.8643 95.5075 94.6481C90.6219 95.0593 85.6719 95.2831 80.6789 95.2831C75.7127 95.2831 70.7681 95.0541 65.9039 94.6794C63.1819 90.8955 60.5244 86.8463 57.9688 82.5836C55.4741 78.4198 53.1977 74.2005 51.1397 69.9257C53.1745 65.6526 55.4723 61.3847 57.9366 57.2158C60.4868 52.9219 63.1229 48.8518 65.8556 45.0679C70.7412 44.6516 75.6912 44.4329 80.6842 44.4329V44.4434ZM80.5822 27.3667C83.6961 30.4895 86.6812 33.8049 89.4891 37.2608L89.7038 37.5367C86.751 37.4066 83.7337 37.3181 80.6789 37.3181C77.5918 37.3181 74.5423 37.3805 71.5519 37.5367C74.537 33.7893 77.4898 30.4739 80.6198 27.3146L80.5769 27.3562L80.5822 27.3667ZM47.8271 7.52624C58.8493 9.48322 68.336 14.7972 75.3638 22.3129L75.4013 22.3545C70.6822 27.1637 66.2368 32.3424 62.1619 37.8021L61.8505 38.2393C53.9315 39.0357 46.8285 40.264 39.9135 41.9555L40.9658 41.7369C40.2142 38.5516 39.6558 35.4652 39.2639 32.5037C37.723 20.3559 39.6236 10.9093 44.0529 8.39543C45.1588 7.89057 46.4527 7.57829 47.8164 7.53665H47.8325L47.8271 7.52624ZM113.38 7.39612V7.43776C113.45 7.43776 113.531 7.43255 113.617 7.43255C114.9 7.43255 116.108 7.73963 117.171 8.28092L117.128 8.2601C121.595 10.7428 123.533 20.1945 122.024 32.3528C121.664 35.3455 121.074 38.4996 120.349 41.7161C114.524 40.2692 107.432 39.0461 100.195 38.3018L99.5073 38.2445C95.0727 32.3424 90.5951 27.1533 85.79 22.266L85.8544 22.3285C92.8929 14.7296 102.374 9.37912 113.096 7.44817L113.396 7.40133L113.38 7.39612ZM113.413 0.307284C100.302 2.23824 88.9522 8.41104 80.6628 17.3163L80.6198 17.3632C72.2713 8.46309 60.9217 2.33192 48.1332 0.473835L47.8325 0.437402C47.7627 0.437402 47.6768 0.437402 47.5909 0.437402C44.9548 0.437402 42.4798 1.10881 40.3376 2.28508L40.4128 2.24865C31.1892 7.40653 29.1222 23.4787 33.8843 43.647C13.4614 49.7626 0.178955 59.5371 0.178955 69.8372C0.178955 80.179 13.5312 89.9795 34.0132 96.0482C29.2886 116.295 31.3986 132.393 40.6437 137.546C42.6731 138.675 45.1105 139.336 47.7037 139.336C47.8218 139.336 47.9399 139.336 48.0526 139.331H48.0365C61.1471 137.4 72.4968 131.222 80.7862 122.311L80.8292 122.264C89.1777 131.17 100.527 137.301 113.316 139.159L113.617 139.195C113.697 139.195 113.799 139.195 113.896 139.195C116.516 139.195 118.98 138.529 121.111 137.369L121.036 137.405C130.254 132.252 132.327 116.18 127.565 96.0066C147.912 89.9431 161.195 80.1478 161.195 69.832C161.195 59.4902 147.843 49.6897 127.361 43.6054C132.085 23.3798 129.975 7.266 120.73 2.10812C118.679 0.968285 116.22 0.296875 113.6 0.296875C113.531 0.296875 113.461 0.296875 113.391 0.296875H113.402L113.413 0.307284ZM95.6471 69.8372C95.6471 77.8681 88.9307 84.3792 80.6467 84.3792C72.3626 84.3792 65.6462 77.8681 65.6462 69.8372C65.6462 61.8063 72.3626 55.2952 80.6467 55.2952C84.7914 55.2952 88.5388 56.9243 91.2554 59.5527C93.972 62.1863 95.6471 65.8192 95.6471 69.8372Z" fill="#3496FF"/>
</svg>
