<svg width="199" height="87" viewBox="0 0 199 87" fill="none" xmlns="http://www.w3.org/2000/svg">
<mask id="path-1-inside-1_142_224" fill="white">
<path d="M134.475 0.765869L133.858 3.97511C132.903 10.0568 133.249 11.7966 135.868 14.0539L138.396 16.1384L135.777 27.7763C134.212 34.7198 132.293 40.539 131.074 42.4511C130.028 44.1008 128.81 46.5305 128.546 47.8355C128.109 49.3946 126.627 50.9625 124.362 52.3492C122.361 53.4819 118.432 56.5187 115.648 58.9563C113.425 60.9507 111.893 62.1735 111.061 62.6989L108.343 64.841C107.644 65.8737 107.119 67.0132 106.787 68.2143C106.597 69.0923 106.704 69.6753 106.984 70.1018C107.256 70.5125 107.726 70.7996 108.368 70.9803C109.128 71.1576 109.911 71.2211 110.69 71.1689C112.454 71.0488 114.198 70.7405 115.895 70.2495C116.472 70.0939 116.925 69.9462 117.32 69.8147C117.93 69.0677 119.338 67.6563 121.834 65.202C128.455 58.6939 130.984 55.1315 128.373 56.0918C127.409 56.4365 127.846 55.5669 129.501 53.8266C132.993 50.4371 134.994 45.3157 139.178 29.2537C142.489 16.5733 142.489 16.393 144.927 16.393C146.072 16.393 149.308 16.59 149.308 16.59V0.765869H141.88H134.475ZM166.093 26.7422C165.566 26.7422 164.693 27.5301 164.174 28.4003C163.219 29.9598 164.347 30.9117 178.727 39.8579C187.268 45.2502 194.153 49.8461 193.98 50.1992C193.807 50.4533 186.831 54.9759 178.472 60.1874C163.301 69.5601 163.219 69.6507 164.611 71.5629C166.357 73.8197 164.611 74.5998 184.303 62.3542L198.6 53.2356V46.3744L182.647 36.5586C174.024 31.1742 166.53 26.8328 166.093 26.7422ZM33.6191 27.7025C33.1826 27.7025 25.688 32.1345 17.065 37.4282L0.939209 47.2446V54.1058L16.9745 64.094C25.8692 69.5601 33.3639 74.0827 33.7098 74.0827C34.0557 74.0827 34.7557 73.2948 35.4558 72.3424C36.5017 70.6927 35.6205 69.9954 20.8947 60.7045C6.86904 51.9307 5.38658 50.7163 6.78666 49.7639C7.65968 49.1567 14.2813 45.0695 21.4301 40.6458C37.7289 30.6571 36.8558 31.3466 35.5463 29.262C35.0275 28.4003 34.1462 27.6207 33.6274 27.7025H33.6191ZM105.14 27.8916C102.735 27.8748 97.5623 31.5273 82.079 44.1254C81.4119 45.7096 81.3541 46.8014 81.659 47.507C81.8566 47.9911 82.2189 48.3279 82.7214 48.5742C83.2156 48.8204 83.858 48.9681 84.5661 49.0252C85.9744 49.1484 87.6382 48.9268 88.9809 48.6643L89.8866 48.4589C90.197 48.0448 90.6041 47.7119 91.0726 47.4908C92.0278 46.9654 96.0388 43.3213 100.05 39.4147C107.108 32.2906 108.763 29.0734 105.889 28.0309C105.653 27.9374 105.402 27.8901 105.148 27.8916H105.14ZM123.226 32.8406C121.109 32.8977 117.296 35.3437 110.765 40.539C107.487 43.1898 105.411 44.6179 104.3 44.9134L99.9837 48.3112C98.3613 51.2659 98.1227 53.0963 98.5506 54.1058C98.6578 54.355 98.8135 54.58 99.0087 54.7691C99.2039 54.9577 99.4342 55.1059 99.6872 55.2054C100.317 55.4531 100.987 55.5787 101.664 55.5747C103.281 55.5575 104.887 55.3231 106.441 54.8774C107.25 54.6608 108.05 54.4086 108.837 54.122L109.076 54.0235L109.513 53.7941C110.336 52.7353 112.231 50.7409 114.603 48.4427C122.097 41.2368 125.927 36.1154 125.144 34.2027C124.79 33.2755 124.181 32.8076 123.226 32.8406ZM103.262 41.7046C102.652 41.7701 101.285 42.8205 98.8224 44.971C95.2645 48.1063 91.3854 49.9116 90.0433 49.1075C89.731 49.1774 89.4182 49.2434 89.1044 49.3045C87.7371 49.5753 86.0322 49.7969 84.5088 49.6738C83.7908 49.6305 83.0871 49.4552 82.4333 49.1567C81.8166 48.8755 81.3245 48.3792 81.0497 47.7616C80.7448 47.023 80.7448 46.1036 81.0907 44.9301L75.7376 49.3128L63.6224 59.301V75.494L103.319 44.3308C103.312 43.9895 103.356 43.6492 103.451 43.3213C103.756 42.2217 103.739 41.6632 103.262 41.7125V41.7046ZM120.343 46.9491C119.742 46.9491 118.737 47.7941 117.131 49.4931C114.949 51.8159 111.514 54.0649 109.694 54.5244L109.414 54.6721C109.115 54.7952 108.813 54.9099 108.508 55.0168C108.014 55.1808 107.371 55.3778 106.63 55.5747C105.148 55.9771 103.303 56.3464 101.656 56.3055C100.879 56.3045 100.11 56.1538 99.3907 55.8623C98.7127 55.5836 98.1696 55.0542 97.8756 54.385C97.3977 53.244 97.587 51.6436 98.6331 49.37L63.614 76.8566V86.7464H78.999L111.629 61.2053C112.478 60.2697 113.754 58.9893 115.475 57.3889C120.088 53.1293 121.133 51.6598 121.133 49.4852C121.133 47.7941 120.944 46.9407 120.343 46.9407V46.9491ZM128.109 62.9535L125.317 65.7274C123.752 67.2048 120.96 69.0268 119.05 69.8063L118.671 69.9708L118.646 70.0117L118.564 70.0939C118.49 70.151 118.457 70.1594 118.399 70.184C117.636 70.4716 116.861 70.7262 116.077 70.9473C114.332 71.4536 112.537 71.7697 110.724 71.8913C109.866 71.946 109.005 71.8711 108.17 71.6697C107.446 71.5107 106.806 71.0896 106.375 70.4879C105.98 69.8802 105.864 69.0677 106.086 68.0665C106.263 67.3535 106.526 66.6645 106.869 66.0145L80.5387 86.7464H115.558L119.742 81.9697C125.49 75.2892 128.109 70.5125 128.109 66.4252V62.9535Z"/>
</mask>
<path d="M134.475 0.765869L133.858 3.97511C132.903 10.0568 133.249 11.7966 135.868 14.0539L138.396 16.1384L135.777 27.7763C134.212 34.7198 132.293 40.539 131.074 42.4511C130.028 44.1008 128.81 46.5305 128.546 47.8355C128.109 49.3946 126.627 50.9625 124.362 52.3492C122.361 53.4819 118.432 56.5187 115.648 58.9563C113.425 60.9507 111.893 62.1735 111.061 62.6989L108.343 64.841C107.644 65.8737 107.119 67.0132 106.787 68.2143C106.597 69.0923 106.704 69.6753 106.984 70.1018C107.256 70.5125 107.726 70.7996 108.368 70.9803C109.128 71.1576 109.911 71.2211 110.69 71.1689C112.454 71.0488 114.198 70.7405 115.895 70.2495C116.472 70.0939 116.925 69.9462 117.32 69.8147C117.93 69.0677 119.338 67.6563 121.834 65.202C128.455 58.6939 130.984 55.1315 128.373 56.0918C127.409 56.4365 127.846 55.5669 129.501 53.8266C132.993 50.4371 134.994 45.3157 139.178 29.2537C142.489 16.5733 142.489 16.393 144.927 16.393C146.072 16.393 149.308 16.59 149.308 16.59V0.765869H141.88H134.475ZM166.093 26.7422C165.566 26.7422 164.693 27.5301 164.174 28.4003C163.219 29.9598 164.347 30.9117 178.727 39.8579C187.268 45.2502 194.153 49.8461 193.98 50.1992C193.807 50.4533 186.831 54.9759 178.472 60.1874C163.301 69.5601 163.219 69.6507 164.611 71.5629C166.357 73.8197 164.611 74.5998 184.303 62.3542L198.6 53.2356V46.3744L182.647 36.5586C174.024 31.1742 166.53 26.8328 166.093 26.7422ZM33.6191 27.7025C33.1826 27.7025 25.688 32.1345 17.065 37.4282L0.939209 47.2446V54.1058L16.9745 64.094C25.8692 69.5601 33.3639 74.0827 33.7098 74.0827C34.0557 74.0827 34.7557 73.2948 35.4558 72.3424C36.5017 70.6927 35.6205 69.9954 20.8947 60.7045C6.86904 51.9307 5.38658 50.7163 6.78666 49.7639C7.65968 49.1567 14.2813 45.0695 21.4301 40.6458C37.7289 30.6571 36.8558 31.3466 35.5463 29.262C35.0275 28.4003 34.1462 27.6207 33.6274 27.7025H33.6191ZM105.14 27.8916C102.735 27.8748 97.5623 31.5273 82.079 44.1254C81.4119 45.7096 81.3541 46.8014 81.659 47.507C81.8566 47.9911 82.2189 48.3279 82.7214 48.5742C83.2156 48.8204 83.858 48.9681 84.5661 49.0252C85.9744 49.1484 87.6382 48.9268 88.9809 48.6643L89.8866 48.4589C90.197 48.0448 90.6041 47.7119 91.0726 47.4908C92.0278 46.9654 96.0388 43.3213 100.05 39.4147C107.108 32.2906 108.763 29.0734 105.889 28.0309C105.653 27.9374 105.402 27.8901 105.148 27.8916H105.14ZM123.226 32.8406C121.109 32.8977 117.296 35.3437 110.765 40.539C107.487 43.1898 105.411 44.6179 104.3 44.9134L99.9837 48.3112C98.3613 51.2659 98.1227 53.0963 98.5506 54.1058C98.6578 54.355 98.8135 54.58 99.0087 54.7691C99.2039 54.9577 99.4342 55.1059 99.6872 55.2054C100.317 55.4531 100.987 55.5787 101.664 55.5747C103.281 55.5575 104.887 55.3231 106.441 54.8774C107.25 54.6608 108.05 54.4086 108.837 54.122L109.076 54.0235L109.513 53.7941C110.336 52.7353 112.231 50.7409 114.603 48.4427C122.097 41.2368 125.927 36.1154 125.144 34.2027C124.79 33.2755 124.181 32.8076 123.226 32.8406ZM103.262 41.7046C102.652 41.7701 101.285 42.8205 98.8224 44.971C95.2645 48.1063 91.3854 49.9116 90.0433 49.1075C89.731 49.1774 89.4182 49.2434 89.1044 49.3045C87.7371 49.5753 86.0322 49.7969 84.5088 49.6738C83.7908 49.6305 83.0871 49.4552 82.4333 49.1567C81.8166 48.8755 81.3245 48.3792 81.0497 47.7616C80.7448 47.023 80.7448 46.1036 81.0907 44.9301L75.7376 49.3128L63.6224 59.301V75.494L103.319 44.3308C103.312 43.9895 103.356 43.6492 103.451 43.3213C103.756 42.2217 103.739 41.6632 103.262 41.7125V41.7046ZM120.343 46.9491C119.742 46.9491 118.737 47.7941 117.131 49.4931C114.949 51.8159 111.514 54.0649 109.694 54.5244L109.414 54.6721C109.115 54.7952 108.813 54.9099 108.508 55.0168C108.014 55.1808 107.371 55.3778 106.63 55.5747C105.148 55.9771 103.303 56.3464 101.656 56.3055C100.879 56.3045 100.11 56.1538 99.3907 55.8623C98.7127 55.5836 98.1696 55.0542 97.8756 54.385C97.3977 53.244 97.587 51.6436 98.6331 49.37L63.614 76.8566V86.7464H78.999L111.629 61.2053C112.478 60.2697 113.754 58.9893 115.475 57.3889C120.088 53.1293 121.133 51.6598 121.133 49.4852C121.133 47.7941 120.944 46.9407 120.343 46.9407V46.9491ZM128.109 62.9535L125.317 65.7274C123.752 67.2048 120.96 69.0268 119.05 69.8063L118.671 69.9708L118.646 70.0117L118.564 70.0939C118.49 70.151 118.457 70.1594 118.399 70.184C117.636 70.4716 116.861 70.7262 116.077 70.9473C114.332 71.4536 112.537 71.7697 110.724 71.8913C109.866 71.946 109.005 71.8711 108.17 71.6697C107.446 71.5107 106.806 71.0896 106.375 70.4879C105.98 69.8802 105.864 69.0677 106.086 68.0665C106.263 67.3535 106.526 66.6645 106.869 66.0145L80.5387 86.7464H115.558L119.742 81.9697C125.49 75.2892 128.109 70.5125 128.109 66.4252V62.9535Z" fill="#3496FF" stroke="url(#paint0_linear_142_224)" stroke-width="2" mask="url(#path-1-inside-1_142_224)"/>
<defs>
<linearGradient id="paint0_linear_142_224" x1="99.7697" y1="0.765869" x2="99.7697" y2="86.7464" gradientUnits="userSpaceOnUse">
<stop stop-color="#2D5EFF"/>
<stop offset="1" stop-color="#243F99"/>
</linearGradient>
</defs>
</svg>
