<svg width="168" height="102" viewBox="0 0 168 102" fill="none" xmlns="http://www.w3.org/2000/svg">
<path d="M140.529 1.31529C146.252 2.5299 151.453 5.26447 155.475 9.174C157.696 11.2893 159.626 13.6448 161.221 16.1881C161.295 16.4635 150.909 22.8349 144.606 26.3848C144.378 26.5256 143.466 25.6259 142.44 24.2365C141.293 22.4257 139.66 20.9104 137.696 19.8325C135.732 18.7545 133.5 18.1492 131.21 18.0732C123.968 17.6203 119.302 21.0845 119.335 26.8622C119.273 28.2841 119.627 29.6954 120.361 30.9507C121.95 33.962 124.914 35.7614 134.2 39.4337C151.304 46.1662 158.639 50.5852 163.172 56.8832C165.733 60.861 167.31 65.3018 167.793 69.8945C168.276 74.4872 167.653 79.1208 165.968 83.4706C163.653 88.242 159.981 92.3607 155.333 95.399C150.685 98.4373 145.231 100.284 139.537 100.749C133.485 101.383 127.37 101.325 121.333 100.577C112.085 99.191 103.566 95.1396 97.0213 89.0158C94.55 86.4732 92.4578 83.6434 90.7992 80.6001C91.4973 80.1274 92.2323 79.7019 92.9984 79.327C94.0578 78.7701 98.0807 76.6646 101.876 74.6571L108.742 71.0215L110.183 72.9311C112.604 76.1045 115.689 78.8088 119.262 80.8878C122.865 82.6921 126.946 83.5474 131.051 83.3582C135.155 83.1691 139.122 81.943 142.507 79.8167C144.253 78.2626 145.344 76.1974 145.589 73.9829C145.834 71.7684 145.218 69.5457 143.848 67.7042C141.991 65.256 138.196 63.2424 127.421 58.9764C118.971 56.3772 111.274 52.0669 104.906 46.3682C101.873 43.2134 99.6322 39.4907 98.3422 35.4615C97.389 30.8723 97.2486 26.1733 97.9265 21.5435C99.1912 16.2153 102.22 11.371 106.603 7.66713C110.985 3.96331 116.509 1.57917 122.426 0.837895C128.453 0.167232 134.555 0.328166 140.529 1.31529ZM84.4362 10.4226L84.51 19.3463H53.3858V100.02H31.4138V19.3585H0.303057V10.6001C0.219776 7.59678 0.309298 4.59157 0.571253 1.59684C0.685236 1.45607 19.6065 1.38874 42.5574 1.42547L84.3088 1.52951L84.4362 10.4226Z" fill="#3496FF"/>
</svg>
